<svg xmlns="http://www.w3.org/2000/svg" width="32" height="32" viewBox="0 0 32 32">
  <rect width="32" height="32" rx="6" fill="#4F46E5"/>
  <rect x="6" y="8" width="4" height="4" rx="1" fill="#10B981"/>
  <rect x="12" y="8" width="4" height="4" rx="1" fill="#10B981"/>
  <rect x="18" y="8" width="4" height="4" rx="1" fill="#E5E7EB"/>
  <rect x="24" y="8" width="4" height="4" rx="1" fill="#10B981"/>
  <rect x="6" y="14" width="4" height="4" rx="1" fill="#10B981"/>
  <rect x="12" y="14" width="4" height="4" rx="1" fill="#E5E7EB"/>
  <rect x="18" y="14" width="4" height="4" rx="1" fill="#10B981"/>
  <rect x="24" y="14" width="4" height="4" rx="1" fill="#10B981"/>
  <rect x="6" y="20" width="4" height="4" rx="1" fill="#10B981"/>
  <rect x="12" y="20" width="4" height="4" rx="1" fill="#10B981"/>
  <rect x="18" y="20" width="4" height="4" rx="1" fill="#10B981"/>
  <rect x="24" y="20" width="4" height="4" rx="1" fill="#E5E7EB"/>
</svg>
